<svg xmlns="http://www.w3.org/2000/svg" viewBox="0 0 1400 980" font-family="Helvetica Neue, Helvetica, Arial, sans-serif" role="img" aria-labelledby="t d">
<title id="t">PI Agent — Core Data Model</title>
<desc id="d">Hub-and-cluster entity model with MATTER at the center, connected to tenancy, intake, corpus, extracted facts, provenance, human elections and drafting artifacts, and platform clusters. Extracted facts, human elections, and derived artifacts live in separate tables; STRATEGY_PLAN and DEMAND_DRAFT bind to a registry version.</desc>
<defs><marker id="arrow" viewBox="0 0 10 10" refX="8" refY="5" markerWidth="6" markerHeight="6" orient="auto-start-reverse"><path d="M2 1L8 5L2 9" fill="none" stroke="context-stroke" stroke-width="1.5" stroke-linecap="round" stroke-linejoin="round"/></marker></defs>

<rect x="0" y="0" width="1400" height="980" fill="#FFFFFF"/>
<rect x="4" y="4" width="1392" height="972" rx="14" fill="none" stroke="#E2E8F0" stroke-width="1.5"/>

<text x="36" y="52" font-size="22" font-weight="bold" fill="#0F172A">PI Agent — Core Data Model</text>
<text x="36" y="76" font-size="13" fill="#64748B">MATTER is the hub; extracted facts, human elections, and derived artifacts stay separate.</text>

<!-- Legend bottom-left -->
<g>
<rect x="36" y="900" width="15" height="15" rx="3" fill="#E0F2FE" stroke="#0284C7" stroke-width="1.5"/>
<text x="57" y="912" font-size="12" fill="#475569">Data store</text>
<rect x="150" y="900" width="15" height="15" rx="3" fill="#FEF3C7" stroke="#D97706" stroke-width="1.5"/>
<text x="171" y="912" font-size="12" fill="#475569">Human election</text>
<rect x="292" y="900" width="15" height="15" rx="3" fill="#EDE9FE" stroke="#7C3AED" stroke-width="1.5"/>
<text x="313" y="912" font-size="12" fill="#475569">LLM / drafting</text>
<rect x="426" y="900" width="15" height="15" rx="3" fill="#DCFCE7" stroke="#16A34A" stroke-width="1.5"/>
<text x="447" y="912" font-size="12" fill="#475569">Derived (recompute-only)</text>
<rect x="626" y="900" width="15" height="15" rx="3" fill="#F1F5F9" stroke="#64748B" stroke-width="1.5"/>
<text x="647" y="912" font-size="12" fill="#475569">Extracted / neutral</text>
<line x1="792" y1="908" x2="828" y2="908" stroke="#64748B" stroke-width="1.5" stroke-dasharray="6 4"/>
<text x="836" y="912" font-size="12" fill="#475569">m:n relationship</text>
</g>

<!-- ================= EDGES (drawn first, under boxes) ================= -->
<!-- MATTER center reference: box x=580..832, y=402..612. Center ~706,507 -->

<!-- MATTER -> TENANCY container (top-left) -->
<path d="M600 402 L360 300" fill="none" stroke="#64748B" stroke-width="1.5" marker-end="url(#arrow)"/>
<rect x="452" y="336" width="52" height="16" fill="#FFFFFF"/>
<text x="478" y="348" font-size="11" fill="#475569" text-anchor="middle">1 — N</text>

<!-- MATTER -> INTAKE container (top-right) -->
<path d="M812 402 L1052 300" fill="none" stroke="#64748B" stroke-width="1.5" marker-end="url(#arrow)"/>
<rect x="906" y="336" width="52" height="16" fill="#FFFFFF"/>
<text x="932" y="348" font-size="11" fill="#475569" text-anchor="middle">1 — N</text>

<!-- MATTER -> PLATFORM container (top center-right) -->
<path d="M780 402 L900 348" fill="none" stroke="#64748B" stroke-width="1.5" marker-end="url(#arrow)"/>

<!-- MATTER -> CORPUS root CASE_DOCUMENT (left) -->
<path d="M580 470 L360 470" fill="none" stroke="#64748B" stroke-width="1.5" marker-end="url(#arrow)"/>
<rect x="440" y="452" width="52" height="16" fill="#FFFFFF"/>
<text x="466" y="464" font-size="11" fill="#475569" text-anchor="middle">1 — N</text>

<!-- MATTER -> EXTRACTED container (bottom-left) -->
<path d="M600 612 L470 698" fill="none" stroke="#64748B" stroke-width="1.5" marker-end="url(#arrow)"/>
<rect x="510" y="646" width="52" height="16" fill="#FFFFFF"/>
<text x="536" y="658" font-size="11" fill="#475569" text-anchor="middle">1 — N</text>

<!-- MATTER -> PROVENANCE FACT_TOKEN (bottom-center) -->
<path d="M706 612 L706 728" fill="none" stroke="#64748B" stroke-width="1.5" marker-end="url(#arrow)"/>
<rect x="680" y="662" width="52" height="16" fill="#FFFFFF"/>
<text x="706" y="674" font-size="11" fill="#475569" text-anchor="middle">1 — N</text>

<!-- MATTER -> ELECTIONS container (right, routed below amber note) -->
<path d="M832 560 L1052 560" fill="none" stroke="#64748B" stroke-width="1.5" marker-end="url(#arrow)"/>
<rect x="932" y="543" width="52" height="16" fill="#FFFFFF"/>
<text x="958" y="555" font-size="11" fill="#475569" text-anchor="middle">1 — N</text>

<!-- CASE_DOCUMENT 1-N DOCUMENT_PAGE -->
<path d="M232 520 L232 566" fill="none" stroke="#64748B" stroke-width="1.5" marker-end="url(#arrow)"/>
<rect x="206" y="536" width="52" height="16" fill="#FFFFFF"/>
<text x="232" y="548" font-size="11" fill="#475569" text-anchor="middle">1 — N</text>

<!-- FACT_TOKEN dashed m:n to DOCUMENT_PAGE "anchored to" -->
<path d="M576 776 L306 634" fill="none" stroke="#64748B" stroke-width="1.5" stroke-dasharray="6 4" marker-end="url(#arrow)"/>
<rect x="360" y="652" width="94" height="16" fill="#FFFFFF"/>
<text x="407" y="664" font-size="11" fill="#475569" text-anchor="middle">m:n · anchored to</text>

<!-- BILLING_LINE N-1 rollup to SPECIALS_LEDGER "recomputed" (routed around clusters) -->
<path d="M158 754 L135 754 L135 320 L540 320 L540 266 L900 266" fill="none" stroke="#16A34A" stroke-width="2" stroke-dasharray="6 4" marker-end="url(#arrow)"/>
<rect x="606" y="258" width="130" height="16" fill="#FFFFFF"/>
<text x="671" y="270" font-size="11" fill="#166534" text-anchor="middle">N — 1 · recomputed</text>

<!-- DEMAND_DRAFT 1-N DRAFT_SECTION -->
<path d="M1200 618 L1200 650" fill="none" stroke="#7C3AED" stroke-width="1.5" marker-end="url(#arrow)"/>
<rect x="1206" y="626" width="46" height="14" fill="#FFFFFF"/>
<text x="1210" y="637" font-size="11" fill="#5B21B6">1 — N</text>

<!-- ================= CENTER HUB: MATTER ================= -->
<rect x="580" y="402" width="252" height="210" rx="10" fill="#E0F2FE" stroke="#0284C7" stroke-width="2"/>
<rect x="580" y="402" width="252" height="30" rx="10" fill="#0284C7"/>
<rect x="580" y="418" width="252" height="14" fill="#0284C7"/>
<text x="706" y="422" font-size="13" font-weight="bold" fill="#FFFFFF" text-anchor="middle" letter-spacing="1">MATTER</text>
<text x="596" y="452" font-size="12" fill="#075985">id</text>
<text x="596" y="472" font-size="12" fill="#075985">firm_id</text>
<text x="596" y="492" font-size="12" fill="#075985">claim_type</text>
<text x="596" y="512" font-size="12" fill="#075985">incident_date</text>
<text x="596" y="532" font-size="12" fill="#075985">jurisdiction</text>
<text x="596" y="552" font-size="12" fill="#075985">gate_state</text>
<text x="596" y="572" font-size="12" fill="#075985">sol_candidates</text>
<text x="596" y="592" font-size="12" fill="#075985">registry_version</text>

<!-- ================= TENANCY cluster (top-left) ================= -->
<rect x="150" y="112" width="360" height="176" rx="10" fill="none" stroke="#64748B" stroke-width="1" stroke-dasharray="3 3"/>
<text x="166" y="132" font-size="13" fill="#64748B" letter-spacing="1">TENANCY</text>

<rect x="166" y="146" width="150" height="126" rx="10" fill="#F1F5F9" stroke="#64748B" stroke-width="1.5"/>
<rect x="166" y="146" width="150" height="28" rx="10" fill="#64748B"/>
<rect x="166" y="160" width="150" height="14" fill="#64748B"/>
<text x="241" y="165" font-size="13" font-weight="bold" fill="#FFFFFF" text-anchor="middle" letter-spacing="1">FIRM</text>
<text x="182" y="196" font-size="12" fill="#475569">id</text>
<text x="182" y="216" font-size="12" fill="#475569">name</text>
<text x="182" y="236" font-size="12" fill="#475569">letterhead</text>
<text x="182" y="256" font-size="12" fill="#475569">launch_states</text>

<rect x="336" y="146" width="158" height="126" rx="10" fill="#F1F5F9" stroke="#64748B" stroke-width="1.5"/>
<rect x="336" y="146" width="158" height="28" rx="10" fill="#64748B"/>
<rect x="336" y="160" width="158" height="14" fill="#64748B"/>
<text x="415" y="165" font-size="13" font-weight="bold" fill="#FFFFFF" text-anchor="middle" letter-spacing="1">USER</text>
<text x="352" y="196" font-size="12" fill="#475569">id · firm_id</text>
<text x="352" y="216" font-size="12" fill="#475569">role:</text>
<text x="352" y="236" font-size="12" fill="#475569">  paralegal /</text>
<text x="352" y="256" font-size="12" fill="#475569">  attorney / admin</text>

<!-- ================= INTAKE cluster (top-right) ================= -->
<rect x="1052" y="112" width="296" height="176" rx="10" fill="none" stroke="#64748B" stroke-width="1" stroke-dasharray="3 3"/>
<text x="1068" y="132" font-size="13" fill="#64748B" letter-spacing="1">INTAKE</text>

<rect x="1068" y="146" width="122" height="126" rx="10" fill="#F1F5F9" stroke="#64748B" stroke-width="1.5"/>
<rect x="1068" y="146" width="122" height="28" rx="10" fill="#64748B"/>
<rect x="1068" y="160" width="122" height="14" fill="#64748B"/>
<text x="1129" y="165" font-size="13" font-weight="bold" fill="#FFFFFF" text-anchor="middle" letter-spacing="1">PARTY</text>
<text x="1084" y="196" font-size="12" fill="#475569">id</text>
<text x="1084" y="216" font-size="12" fill="#475569">role</text>
<text x="1084" y="236" font-size="12" fill="#475569">name</text>
<text x="1084" y="256" font-size="12" fill="#475569">contact</text>

<rect x="1210" y="146" width="122" height="126" rx="10" fill="#F1F5F9" stroke="#64748B" stroke-width="1.5"/>
<rect x="1210" y="146" width="122" height="28" rx="10" fill="#64748B"/>
<rect x="1210" y="160" width="122" height="14" fill="#64748B"/>
<text x="1271" y="165" font-size="11" font-weight="bold" fill="#FFFFFF" text-anchor="middle" letter-spacing="0">INSURANCE_POLICY</text>
<text x="1226" y="196" font-size="12" fill="#475569">carrier</text>
<text x="1226" y="216" font-size="12" fill="#475569">liability</text>
<text x="1226" y="236" font-size="12" fill="#475569">UM</text>
<text x="1226" y="256" font-size="12" fill="#475569">PIP</text>

<!-- ================= PLATFORM cluster (top center-right) ================= -->
<rect x="884" y="112" width="150" height="272" rx="10" fill="none" stroke="#64748B" stroke-width="1" stroke-dasharray="3 3"/>
<text x="900" y="132" font-size="13" fill="#64748B" letter-spacing="1">PLATFORM</text>

<rect x="900" y="142" width="118" height="26" rx="8" fill="#F1F5F9" stroke="#64748B" stroke-width="1.5"/>
<text x="959" y="159" font-size="12.5" font-weight="bold" fill="#475569" text-anchor="middle" letter-spacing="0.5">EXHIBIT</text>

<rect x="900" y="176" width="118" height="26" rx="8" fill="#F1F5F9" stroke="#64748B" stroke-width="1.5"/>
<text x="959" y="193" font-size="12.5" font-weight="bold" fill="#475569" text-anchor="middle" letter-spacing="0.5">LLM_CALL</text>

<rect x="900" y="210" width="118" height="26" rx="8" fill="#F1F5F9" stroke="#64748B" stroke-width="1.5"/>
<text x="959" y="227" font-size="11.5" font-weight="bold" fill="#475569" text-anchor="middle" letter-spacing="0.5">MATTER_BUDGET</text>

<rect x="900" y="244" width="118" height="44" rx="8" fill="#DCFCE7" stroke="#16A34A" stroke-width="1.5"/>
<text x="959" y="261" font-size="11.5" font-weight="bold" fill="#166534" text-anchor="middle" letter-spacing="0.5">SPECIALS_LEDGER</text>
<text x="959" y="279" font-size="11" fill="#166534" text-anchor="middle">recompute-only</text>

<rect x="900" y="296" width="118" height="44" rx="8" fill="#F1F5F9" stroke="#64748B" stroke-width="1.5"/>
<text x="959" y="313" font-size="11.5" font-weight="bold" fill="#475569" text-anchor="middle" letter-spacing="0.5">COMPARABLE_PICK</text>
<rect x="925" y="320" width="68" height="16" rx="8" fill="#EDE9FE" stroke="#7C3AED" stroke-width="1"/>
<text x="959" y="332" font-size="10.5" fill="#5B21B6" text-anchor="middle">v1.x</text>

<!-- ================= CORPUS cluster (left) ================= -->
<rect x="150" y="360" width="212" height="334" rx="10" fill="none" stroke="#64748B" stroke-width="1" stroke-dasharray="3 3"/>
<text x="166" y="380" font-size="13" fill="#64748B" letter-spacing="1">CORPUS</text>

<rect x="158" y="392" width="148" height="128" rx="10" fill="#E0F2FE" stroke="#0284C7" stroke-width="1.5"/>
<rect x="158" y="392" width="148" height="28" rx="10" fill="#0284C7"/>
<rect x="158" y="406" width="148" height="14" fill="#0284C7"/>
<text x="232" y="411" font-size="12.5" font-weight="bold" fill="#FFFFFF" text-anchor="middle" letter-spacing="0.5">CASE_DOCUMENT</text>
<text x="174" y="442" font-size="12" fill="#475569">id · matter_id</text>
<text x="174" y="462" font-size="12" fill="#475569">doc_type</text>
<text x="174" y="482" font-size="12" fill="#475569">dedup_status</text>
<text x="174" y="502" font-size="12" fill="#475569">status</text>

<rect x="158" y="566" width="148" height="128" rx="10" fill="#E0F2FE" stroke="#0284C7" stroke-width="1.5"/>
<rect x="158" y="566" width="148" height="28" rx="10" fill="#0284C7"/>
<rect x="158" y="580" width="148" height="14" fill="#0284C7"/>
<text x="232" y="585" font-size="12.5" font-weight="bold" fill="#FFFFFF" text-anchor="middle" letter-spacing="0.5">DOCUMENT_PAGE</text>
<text x="174" y="616" font-size="12" fill="#475569">page_no</text>
<text x="174" y="636" font-size="12" fill="#475569">text_source</text>
<text x="174" y="656" font-size="12" fill="#475569">ocr_confidence</text>
<text x="174" y="676" font-size="12" fill="#475569">image_ref</text>

<!-- ================= EXTRACTED cluster (bottom-left) ================= -->
<rect x="150" y="696" width="344" height="198" rx="10" fill="none" stroke="#64748B" stroke-width="1" stroke-dasharray="3 3"/>
<text x="166" y="716" font-size="13" fill="#64748B" letter-spacing="1">EXTRACTED — what the records say</text>

<!-- Col2: MEDICAL_ENCOUNTER (tall) -->
<rect x="322" y="726" width="164" height="158" rx="10" fill="#F1F5F9" stroke="#64748B" stroke-width="1.5"/>
<rect x="322" y="726" width="164" height="28" rx="10" fill="#64748B"/>
<rect x="322" y="740" width="164" height="14" fill="#64748B"/>
<text x="404" y="745" font-size="12" font-weight="bold" fill="#FFFFFF" text-anchor="middle" letter-spacing="0.3">MEDICAL_ENCOUNTER</text>
<text x="338" y="776" font-size="12" fill="#475569">date_of_service</text>
<text x="338" y="796" font-size="12" fill="#475569">provider</text>
<text x="338" y="816" font-size="12" fill="#475569">diagnoses</text>
<text x="338" y="836" font-size="12" fill="#475569">procedures</text>
<text x="338" y="856" font-size="12" fill="#475569">anchors · merged_from</text>

<!-- Col1 top: BILLING_LINE -->
<rect x="158" y="722" width="156" height="58" rx="10" fill="#F1F5F9" stroke="#64748B" stroke-width="1.5"/>
<rect x="158" y="722" width="156" height="25" rx="10" fill="#64748B"/>
<rect x="158" y="735" width="156" height="12" fill="#64748B"/>
<text x="236" y="739" font-size="12.5" font-weight="bold" fill="#FFFFFF" text-anchor="middle" letter-spacing="0.3">BILLING_LINE</text>
<text x="174" y="760" font-size="11.5" fill="#475569">billed · adjusted</text>
<text x="174" y="775" font-size="11.5" fill="#475569">paid · anchor</text>

<!-- Col1 mid: INCIDENT_FACTS -->
<rect x="158" y="786" width="156" height="42" rx="10" fill="#F1F5F9" stroke="#64748B" stroke-width="1.5"/>
<rect x="158" y="786" width="156" height="25" rx="10" fill="#64748B"/>
<rect x="158" y="799" width="156" height="12" fill="#64748B"/>
<text x="236" y="803" font-size="12" font-weight="bold" fill="#FFFFFF" text-anchor="middle" letter-spacing="0.3">INCIDENT_FACTS</text>
<text x="236" y="823" font-size="11.5" fill="#475569" text-anchor="middle">police report + intake</text>

<!-- Col1 bottom: RISK_FLAG -->
<rect x="158" y="834" width="156" height="56" rx="10" fill="#F1F5F9" stroke="#64748B" stroke-width="1.5"/>
<rect x="158" y="834" width="156" height="25" rx="10" fill="#64748B"/>
<rect x="158" y="847" width="156" height="12" fill="#64748B"/>
<text x="236" y="851" font-size="12.5" font-weight="bold" fill="#FFFFFF" text-anchor="middle" letter-spacing="0.3">RISK_FLAG</text>
<text x="174" y="872" font-size="11.5" fill="#475569">kind · severity</text>
<text x="174" y="887" font-size="11.5" fill="#475569">disposition</text>

<!-- ================= PROVENANCE cluster (bottom-center) ================= -->
<rect x="560" y="700" width="272" height="146" rx="10" fill="none" stroke="#64748B" stroke-width="1" stroke-dasharray="3 3"/>
<text x="576" y="720" font-size="13" fill="#64748B" letter-spacing="1">PROVENANCE</text>

<rect x="576" y="730" width="238" height="100" rx="10" fill="#F1F5F9" stroke="#64748B" stroke-width="1.5"/>
<rect x="576" y="730" width="238" height="28" rx="10" fill="#64748B"/>
<rect x="576" y="744" width="238" height="14" fill="#64748B"/>
<text x="695" y="749" font-size="13" font-weight="bold" fill="#FFFFFF" text-anchor="middle" letter-spacing="0.5">FACT_TOKEN</text>
<text x="592" y="778" font-size="12" fill="#475569">token_id · kind: fact / amount /</text>
<text x="592" y="796" font-size="12" fill="#475569">citation / exhibit</text>
<text x="592" y="816" font-size="12" fill="#475569">anchors · status · source</text>

<!-- ================= ELECTIONS + DRAFTING cluster (right) ================= -->
<rect x="1052" y="360" width="296" height="500" rx="10" fill="none" stroke="#64748B" stroke-width="1" stroke-dasharray="3 3"/>
<text x="1068" y="380" font-size="13" fill="#64748B" letter-spacing="1">ELECTIONS + DRAFTING</text>

<rect x="1068" y="392" width="264" height="48" rx="10" fill="#FEF3C7" stroke="#D97706" stroke-width="1.5"/>
<text x="1200" y="412" font-size="12.5" font-weight="bold" fill="#92400E" text-anchor="middle" letter-spacing="0.5">STRATEGY_INPUTS</text>
<text x="1200" y="429" font-size="11.5" fill="#92400E" text-anchor="middle">G1.5 — theory, framing, emphasis</text>

<rect x="1068" y="450" width="264" height="60" rx="10" fill="#FEF3C7" stroke="#D97706" stroke-width="1.5"/>
<text x="1200" y="470" font-size="12.5" font-weight="bold" fill="#92400E" text-anchor="middle" letter-spacing="0.5">STRATEGY_PLAN</text>
<text x="1200" y="487" font-size="11.5" fill="#92400E" text-anchor="middle">G2.5 · demand amount, sections</text>
<text x="1200" y="503" font-size="11.5" fill="#92400E" text-anchor="middle">registry_version</text>

<rect x="1068" y="568" width="264" height="50" rx="10" fill="#EDE9FE" stroke="#7C3AED" stroke-width="1.5"/>
<text x="1200" y="588" font-size="12.5" font-weight="bold" fill="#5B21B6" text-anchor="middle" letter-spacing="0.3">DEMAND_DRAFT</text>
<text x="1200" y="605" font-size="11.5" fill="#5B21B6" text-anchor="middle">registry_version</text>

<rect x="1104" y="654" width="228" height="46" rx="10" fill="#EDE9FE" stroke="#7C3AED" stroke-width="1.5"/>
<text x="1218" y="674" font-size="12.5" font-weight="bold" fill="#5B21B6" text-anchor="middle" letter-spacing="0.3">DRAFT_SECTION</text>
<text x="1218" y="691" font-size="11.5" fill="#5B21B6" text-anchor="middle">id · budget · tokens</text>

<rect x="1068" y="742" width="264" height="46" rx="10" fill="#FFE4E6" stroke="#E11D48" stroke-width="1.5"/>
<text x="1200" y="762" font-size="12.5" font-weight="bold" fill="#9F1239" text-anchor="middle" letter-spacing="0.3">COMPLIANCE_FINDING</text>
<text x="1200" y="779" font-size="11.5" fill="#9F1239" text-anchor="middle">G3 panel — mechanical / semantic</text>

<rect x="1068" y="798" width="264" height="52" rx="10" fill="#FEF3C7" stroke="#D97706" stroke-width="1.5"/>
<text x="1200" y="818" font-size="12.5" font-weight="bold" fill="#92400E" text-anchor="middle" letter-spacing="0.3">GATE_RECORD</text>
<text x="1200" y="835" font-size="11" fill="#92400E" text-anchor="middle">gate · action · actor_role · payload_hash</text>

<!-- STRATEGY_PLAN -> DEMAND_DRAFT internal edge -->
<path d="M1200 510 L1200 564" fill="none" stroke="#7C3AED" stroke-width="1.5" marker-end="url(#arrow)"/>
<rect x="1206" y="530" width="98" height="14" fill="#FFFFFF"/>
<text x="1210" y="541" font-size="11" fill="#5B21B6">binds version</text>

<!-- ================= AMBER NOTE CARD ================= -->
<rect x="878" y="404" width="164" height="120" rx="10" fill="#FEF3C7" stroke="#D97706" stroke-width="1.5"/>
<text x="894" y="426" font-size="12" font-weight="bold" fill="#92400E">Registry binding</text>
<text x="894" y="448" font-size="11" fill="#92400E">STRATEGY_PLAN and</text>
<text x="894" y="465" font-size="11" fill="#92400E">DEMAND_DRAFT bind to a</text>
<text x="894" y="482" font-size="11" fill="#92400E">registry_version — drift</text>
<text x="894" y="499" font-size="11" fill="#92400E">after approval is a hard</text>
<text x="894" y="516" font-size="11" fill="#92400E">block at G3.</text>

</svg>
