<svg xmlns="http://www.w3.org/2000/svg" viewBox="0 0 1400 940" font-family="Helvetica Neue, Helvetica, Arial, sans-serif" role="img" aria-labelledby="fd-title fd-desc">
<title id="fd-title">PI Agent — Demand Generation to Package (G2.5 → G3 → package_ready)</title>
<desc id="fd-desc">UML sequence across nine lifelines — Attorney, FastAPI, Orchestrator, jurisdiction_rules, brain2_drafting, validator, fact_registry/renderer, compliance judge, and package_builder. Entry to plan_review emits a StrategyPlan; attorney approval binds the registry version; demand generation runs a strategy memo then a per-section loop (draft tokens-only, validate with one retry, render, SSE preview); a judge pre-check opens G3, where mechanical findings span-patch and semantic findings regenerate; approval clears hard blocks and the package builder assembles letter, binder, spreadsheet, and provenance report.</desc>
<defs>
<marker id="arrow" viewBox="0 0 10 10" refX="9" refY="5" markerWidth="7" markerHeight="7" orient="auto-start-reverse">
<path d="M0 0 L10 5 L0 10 z" fill="#334155"/>
</marker>
</defs>

<rect x="0" y="0" width="1400" height="940" fill="#FFFFFF"/>
<rect x="4" y="4" width="1392" height="932" rx="14" fill="none" stroke="#E2E8F0" stroke-width="1.5"/>

<text x="36" y="52" font-size="22" font-weight="bold" fill="#0F172A">PI Agent — Demand Generation to Package (G2.5 → G3 → package_ready)</text>
<text x="36" y="76" font-size="13" fill="#64748B">Plan emit + approve binds the registry version; per-section draft loop; judge pre-check; G3; build.</text>

<!-- Legend (top-right) -->
<g font-size="12" fill="#475569">
<rect x="1006" y="40" width="14" height="14" rx="3" fill="#FFE4E6" stroke="#E11D48" stroke-width="1.5"/>
<text x="1026" y="51">frontend</text>
<rect x="1098" y="40" width="14" height="14" rx="3" fill="#F1F5F9" stroke="#64748B" stroke-width="1.5"/>
<text x="1118" y="51">neutral</text>
<rect x="1176" y="40" width="14" height="14" rx="3" fill="#EDE9FE" stroke="#7C3AED" stroke-width="1.5"/>
<text x="1196" y="51">LLM</text>
<rect x="1234" y="40" width="14" height="14" rx="3" fill="#DCFCE7" stroke="#16A34A" stroke-width="1.5"/>
<text x="1254" y="51">deterministic</text>
<rect x="1176" y="62" width="14" height="14" rx="3" fill="#E0F2FE" stroke="#0284C7" stroke-width="1.5"/>
<text x="1196" y="73">data store</text>
</g>

<!-- ============================ LIFELINES ============================ -->
<line x1="100"  y1="152" x2="100"  y2="896" stroke="#94A3B8" stroke-width="1.2" stroke-dasharray="5 5"/>
<line x1="250"  y1="152" x2="250"  y2="896" stroke="#94A3B8" stroke-width="1.2" stroke-dasharray="5 5"/>
<line x1="400"  y1="152" x2="400"  y2="896" stroke="#94A3B8" stroke-width="1.2" stroke-dasharray="5 5"/>
<line x1="545"  y1="152" x2="545"  y2="270" stroke="#94A3B8" stroke-width="1.2" stroke-dasharray="5 5"/>
<line x1="700"  y1="152" x2="700"  y2="820" stroke="#94A3B8" stroke-width="1.2" stroke-dasharray="5 5"/>
<line x1="850"  y1="152" x2="850"  y2="820" stroke="#94A3B8" stroke-width="1.2" stroke-dasharray="5 5"/>
<line x1="1000" y1="152" x2="1000" y2="880" stroke="#94A3B8" stroke-width="1.2" stroke-dasharray="5 5"/>
<line x1="1160" y1="152" x2="1160" y2="820" stroke="#94A3B8" stroke-width="1.2" stroke-dasharray="5 5"/>
<line x1="1320" y1="152" x2="1320" y2="896" stroke="#94A3B8" stroke-width="1.2" stroke-dasharray="5 5"/>

<!-- Header boxes -->
<rect x="28" y="106" width="144" height="46" rx="10" fill="#FFE4E6" stroke="#E11D48" stroke-width="1.5"/>
<text x="100" y="128" text-anchor="middle" font-size="14" font-weight="600" fill="#9F1239">Attorney</text>
<text x="100" y="144" text-anchor="middle" font-size="11" fill="#475569">frontend</text>

<rect x="184" y="106" width="132" height="46" rx="10" fill="#F1F5F9" stroke="#64748B" stroke-width="1.5"/>
<text x="250" y="134" text-anchor="middle" font-size="14" font-weight="600" fill="#0F172A">FastAPI</text>

<rect x="322" y="106" width="156" height="46" rx="10" fill="#F1F5F9" stroke="#64748B" stroke-width="1.5"/>
<text x="400" y="134" text-anchor="middle" font-size="14" font-weight="600" fill="#0F172A">Orchestrator</text>

<rect x="471" y="106" width="148" height="46" rx="10" fill="#F1F5F9" stroke="#64748B" stroke-width="1.5"/>
<text x="545" y="128" text-anchor="middle" font-size="13" font-weight="600" fill="#0F172A">jurisdiction</text>
<text x="545" y="144" text-anchor="middle" font-size="13" font-weight="600" fill="#0F172A">_rules</text>

<rect x="624" y="106" width="152" height="46" rx="10" fill="#EDE9FE" stroke="#7C3AED" stroke-width="1.5"/>
<text x="700" y="128" text-anchor="middle" font-size="13" font-weight="600" fill="#5B21B6">brain2_drafting</text>
<text x="700" y="144" text-anchor="middle" font-size="11" fill="#475569">Opus</text>

<rect x="778" y="106" width="144" height="46" rx="10" fill="#DCFCE7" stroke="#16A34A" stroke-width="1.5"/>
<text x="850" y="128" text-anchor="middle" font-size="14" font-weight="600" fill="#166534">validator</text>
<text x="850" y="144" text-anchor="middle" font-size="11" fill="#475569">deterministic</text>

<rect x="924" y="106" width="152" height="46" rx="10" fill="#E0F2FE" stroke="#0284C7" stroke-width="1.5"/>
<text x="1000" y="128" text-anchor="middle" font-size="13" font-weight="600" fill="#075985">fact_registry</text>
<text x="1000" y="144" text-anchor="middle" font-size="11" fill="#475569">renderer</text>

<rect x="1084" y="106" width="152" height="46" rx="10" fill="#EDE9FE" stroke="#7C3AED" stroke-width="1.5"/>
<text x="1160" y="128" text-anchor="middle" font-size="13" font-weight="600" fill="#5B21B6">judge</text>
<text x="1160" y="144" text-anchor="middle" font-size="11" fill="#475569">compliance · Sonnet</text>

<rect x="1244" y="106" width="152" height="46" rx="10" fill="#DCFCE7" stroke="#16A34A" stroke-width="1.5"/>
<text x="1320" y="128" text-anchor="middle" font-size="13" font-weight="600" fill="#166534">package_builder</text>
<text x="1320" y="144" text-anchor="middle" font-size="11" fill="#475569">artifacts</text>

<!-- ============================ ACTIVATION BARS ============================ -->
<rect x="394" y="188" width="12" height="700" fill="#E2E8F0" stroke="#94A3B8" stroke-width="1"/>
<rect x="244" y="304" width="12" height="584" fill="#E2E8F0" stroke="#94A3B8" stroke-width="1"/>
<rect x="694" y="404" width="12" height="26" fill="#EDE9FE" stroke="#7C3AED" stroke-width="1"/>
<rect x="694" y="482" width="12" height="26" fill="#EDE9FE" stroke="#7C3AED" stroke-width="1"/>
<rect x="844" y="536" width="12" height="26" fill="#DCFCE7" stroke="#16A34A" stroke-width="1"/>
<rect x="994" y="590" width="12" height="24" fill="#BAE6FD" stroke="#0284C7" stroke-width="1"/>
<rect x="1154" y="676" width="12" height="26" fill="#EDE9FE" stroke="#7C3AED" stroke-width="1"/>
<rect x="1314" y="852" width="12" height="26" fill="#DCFCE7" stroke="#16A34A" stroke-width="1"/>

<!-- ============================ MESSAGES: PLAN EMIT ============================ -->
<g>
<!-- 1 OR -> RULES section skeleton -->
<line x1="406" y1="204" x2="543" y2="204" stroke="#334155" stroke-width="2" marker-end="url(#arrow)"/>
<rect x="410" y="186" width="240" height="16" fill="#FFFFFF" opacity="0.92"/>
<text x="412" y="198" font-size="12" fill="#475569">1  entry plan_review: section skeleton</text>

<!-- 2 OR -> B2 synthesize emphasis -->
<line x1="406" y1="236" x2="692" y2="236" stroke="#334155" stroke-width="2" marker-end="url(#arrow)"/>
<rect x="410" y="218" width="330" height="16" fill="#FFFFFF" opacity="0.92"/>
<text x="412" y="230" font-size="12" fill="#475569">2  synthesize emphasis from G1.5 StrategyInputs</text>
<!-- 3 B2 --> OR StrategyPlan -->
<line x1="700" y1="266" x2="408" y2="266" stroke="#334155" stroke-width="2" stroke-dasharray="6 4" marker-end="url(#arrow)"/>
<rect x="412" y="248" width="470" height="16" fill="#FFFFFF" opacity="0.92"/>
<text x="414" y="260" font-size="12" fill="#475569">3  StrategyPlan {sections[section_id, tokens, max_words], demand_amount}</text>

<!-- gate_ready plan_review -->
<line x1="394" y1="290" x2="258" y2="290" stroke="#334155" stroke-width="2" stroke-dasharray="6 4" marker-end="url(#arrow)"/>
<rect x="150" y="290" width="0" height="0"/>
<text x="262" y="286" font-size="11.5" fill="#475569">SSE gate_ready {gate: plan_review}</text>

<!-- 4 AT -> API G2.5 approve -->
<line x1="100" y1="322" x2="392" y2="322" stroke="#334155" stroke-width="2" marker-end="url(#arrow)"/>
<rect x="104" y="304" width="290" height="16" fill="#FFFFFF" opacity="0.92"/>
<text x="106" y="316" font-size="12" fill="#475569">4  POST /gates/plan_review/submit {approve, edits}</text>

<!-- 5 OR self bind registry_version -->
<path d="M406 350 L476 350 L476 362 L408 362" fill="none" stroke="#334155" stroke-width="2" marker-end="url(#arrow)"/>
<rect x="484" y="342" width="360" height="16" fill="#FFFFFF" opacity="0.92"/>
<text x="486" y="354" font-size="12" fill="#475569">5  bind plan.registry_version (inv 3) · → drafting</text>

<!-- 6 AT -> API demand/generate -->
<line x1="100" y1="386" x2="392" y2="386" stroke="#334155" stroke-width="2" marker-end="url(#arrow)"/>
<rect x="104" y="368" width="320" height="16" fill="#FFFFFF" opacity="0.92"/>
<text x="106" y="380" font-size="12" fill="#475569">6  POST /demand/generate (SSE; budget precheck; binds version)</text>

<!-- 7 OR -> B2 strategy memo -->
<line x1="406" y1="416" x2="692" y2="416" stroke="#334155" stroke-width="2" marker-end="url(#arrow)"/>
<rect x="410" y="398" width="300" height="16" fill="#FFFFFF" opacity="0.92"/>
<text x="412" y="410" font-size="12" fill="#475569">7  strategy memo (plan + inputs + display forms)</text>
<!-- 8 B2 --> OR memo -->
<line x1="700" y1="430" x2="408" y2="430" stroke="#334155" stroke-width="2" stroke-dasharray="6 4" marker-end="url(#arrow)"/>
<rect x="600" y="430" width="80" height="14" fill="#FFFFFF" opacity="0.92"/>
<text x="604" y="441" font-size="11.5" fill="#475569">8  memo</text>
</g>

<!-- ============================ SECTION LOOP FRAME ============================ -->
<rect x="368" y="456" width="720" height="182" rx="8" fill="#FFFBEB" stroke="#D97706" stroke-width="1.3"/>
<path d="M368 456 L368 480 L560 480 L560 470 L550 456 Z" fill="#FEF3C7" stroke="#D97706" stroke-width="1.3"/>
<text x="380" y="474" font-size="12" font-weight="600" fill="#92400E">loop — per planned section</text>

<g>
<!-- 9 OR -> B2 draft (tokens only) -->
<line x1="406" y1="494" x2="692" y2="494" stroke="#334155" stroke-width="2" marker-end="url(#arrow)"/>
<rect x="410" y="488" width="270" height="16" fill="#FFFBEB"/>
<text x="412" y="500" font-size="11.5" fill="#475569">9  draft section (tokens only, late-bound constraints)</text>
<!-- 10 B2 --> OR tokenized section -->
<line x1="700" y1="508" x2="408" y2="508" stroke="#334155" stroke-width="2" stroke-dasharray="6 4" marker-end="url(#arrow)"/>
<rect x="470" y="508" width="150" height="14" fill="#FFFBEB"/>
<text x="474" y="519" font-size="11" fill="#475569">10  tokenized section</text>

<!-- 11 OR -> VAL validate -->
<line x1="406" y1="548" x2="842" y2="548" stroke="#334155" stroke-width="2" marker-end="url(#arrow)"/>
<rect x="410" y="530" width="420" height="16" fill="#FFFBEB"/>
<text x="412" y="542" font-size="11.5" fill="#475569">11  validate: tokens resolve @pinned · required present · constraints hold</text>
<!-- alt violation: one retry (inline note) -->
<rect x="410" y="560" width="430" height="16" fill="#FFF7ED"/>
<text x="412" y="572" font-size="11" font-style="italic" fill="#92400E">alt violation → ONE retry to Brain-2 (violation appended); exhaust → error</text>

<!-- 12 OR -> REG render (detokenize) -->
<line x1="406" y1="602" x2="992" y2="602" stroke="#334155" stroke-width="2" marker-end="url(#arrow)"/>
<rect x="410" y="584" width="330" height="16" fill="#FFFBEB"/>
<text x="412" y="596" font-size="11.5" fill="#475569">12  render section (detokenize; tokens NEVER on wire)</text>

<!-- 13 OR --> API SSE section -->
<line x1="394" y1="626" x2="258" y2="626" stroke="#334155" stroke-width="2" stroke-dasharray="6 4" marker-end="url(#arrow)"/>
<rect x="262" y="620" width="0" height="0"/>
<text x="262" y="622" font-size="11" fill="#475569">13  SSE section {rendered_preview}</text>
</g>

<!-- ============================ JUDGE PRE-CHECK ============================ -->
<g>
<!-- 14 OR -> J semantic pre-check -->
<line x1="406" y1="676" x2="1152" y2="676" stroke="#334155" stroke-width="2" marker-end="url(#arrow)"/>
<rect x="410" y="658" width="420" height="16" fill="#FFFFFF" opacity="0.92"/>
<text x="412" y="670" font-size="12" fill="#475569">14  semantic pre-check + drafter/judge prompt-snapshot symmetry</text>
<!-- 15 J --> OR findings -->
<line x1="1160" y1="702" x2="408" y2="702" stroke="#334155" stroke-width="2" stroke-dasharray="6 4" marker-end="url(#arrow)"/>
<rect x="600" y="702" width="360" height="14" fill="#FFFFFF" opacity="0.92"/>
<text x="604" y="713" font-size="11.5" fill="#475569">15  findings (mechanical | semantic buckets) → SSE gate_ready {compliance_review}</text>
</g>

<!-- ============================ G3 DISPOSITION (dual-bucket note) ============================ -->
<rect x="368" y="726" width="720" height="82" rx="8" fill="#FFFBEB" stroke="#D97706" stroke-width="1.3"/>
<path d="M368 726 L368 750 L546 750 L546 740 L536 726 Z" fill="#FEF3C7" stroke="#D97706" stroke-width="1.3"/>
<text x="380" y="744" font-size="12" font-weight="600" fill="#92400E">loop — per G3 finding (attorney dispositions)</text>
<g font-size="11.5" fill="#92400E">
<text x="384" y="768" font-weight="600">mechanical →</text>
<text x="480" y="768" fill="#475569">span-patch: deterministic splice + re-verify (no LLM)</text>
<text x="384" y="788" font-weight="600">semantic →</text>
<text x="480" y="788" fill="#475569">regen section (finding appended) → re-validate (11) → re-check (14)</text>
</g>

<!-- ============================ APPROVE + HARD BLOCKS + BUILD ============================ -->
<g>
<!-- 16 AT -> API approve -->
<line x1="100" y1="836" x2="392" y2="836" stroke="#334155" stroke-width="2" marker-end="url(#arrow)"/>
<rect x="104" y="818" width="300" height="16" fill="#FFFFFF" opacity="0.92"/>
<text x="106" y="830" font-size="12" fill="#475569">16  POST /gates/compliance_review/submit {approve}</text>

<!-- 17 OR -> PKG build (guarded by hard blocks) -->
<line x1="406" y1="864" x2="1312" y2="864" stroke="#334155" stroke-width="2" marker-end="url(#arrow)"/>
<rect x="410" y="846" width="620" height="16" fill="#FFFFFF" opacity="0.92"/>
<text x="412" y="858" font-size="12" fill="#475569">17  HARD BLOCKS clear (orphans? version mismatch? unverified? undispositioned adverse?) → build</text>
<!-- 18 PKG --> API artifact_ready + package_ready -->
<line x1="1314" y1="890" x2="258" y2="890" stroke="#334155" stroke-width="2" stroke-dasharray="6 4" marker-end="url(#arrow)"/>
<rect x="600" y="884" width="620" height="14" fill="#FFFFFF" opacity="0.92"/>
<text x="604" y="895" font-size="11.5" fill="#475569">18  letter.docx + binder(Bates) + chronology.xlsx + provenance(E4) + SHA-256 manifest → package_ready</text>
</g>
</svg>
