<svg xmlns="http://www.w3.org/2000/svg" viewBox="0 0 1400 640" font-family="Helvetica Neue, Helvetica, Arial, sans-serif" role="img" aria-labelledby="t d">
<title id="t">PI Agent — Seed to Series A (24 months)</title>
<desc id="d">A gantt-style timeline over 24 months with three parallel tracks. Legal and firm track (amber): ethics counsel and structure months 1 to 2, ABS application to license months 3 to 6, AZ attorney search and hire months 1 to 3, with milestone diamonds for first cases signed at month 7 and first fee collections at month 13.5. Software track (purple): corpus, extraction and money engine months 1 to 2.5, gates, Brain-2 and package months 2.5 to 4.5, provenance and evals AZ-tuned months 4.5 to 5.5. Growth track (blue): intake ramp to 12 per month months 7 to 12, scale to 25 per month plus dual-track licensing months 12 to 22, with a Series A raise milestone at month 21. A green annotation strip marks fee collections ramping to about 140K per month from months 13 to 24.</desc>
<defs>
<marker id="arrow" viewBox="0 0 10 10" refX="8" refY="5" markerWidth="6" markerHeight="6" orient="auto-start-reverse">
<path d="M2 1L8 5L2 9" fill="none" stroke="#334155" stroke-width="1.5" stroke-linecap="round" stroke-linejoin="round"/>
</marker>
</defs>

<rect x="0" y="0" width="1400" height="640" fill="#FFFFFF"/>
<rect x="4" y="4" width="1392" height="632" rx="14" fill="none" stroke="#E2E8F0" stroke-width="1.5"/>

<text x="36" y="52" font-size="22" font-weight="bold" fill="#0F172A">PI Agent — Seed to Series A (24 months)</text>
<text x="36" y="76" font-size="13" fill="#64748B">Three parallel tracks — software is fast; the firm and its case pipeline set the clock.</text>

<!-- ============ MONTH GRIDLINES (plot x=200..1360, 24 mo, 48.333px/mo) ============ -->
<g stroke="#E2E8F0" stroke-width="1">
<line x1="200" y1="112" x2="200" y2="460"/>
<line x1="248.33" y1="112" x2="248.33" y2="460"/>
<line x1="296.67" y1="112" x2="296.67" y2="460"/>
<line x1="345" y1="112" x2="345" y2="460"/>
<line x1="393.33" y1="112" x2="393.33" y2="460"/>
<line x1="441.67" y1="112" x2="441.67" y2="460"/>
<line x1="490" y1="112" x2="490" y2="460"/>
<line x1="538.33" y1="112" x2="538.33" y2="460"/>
<line x1="586.67" y1="112" x2="586.67" y2="460"/>
<line x1="635" y1="112" x2="635" y2="460"/>
<line x1="683.33" y1="112" x2="683.33" y2="460"/>
<line x1="731.67" y1="112" x2="731.67" y2="460"/>
<line x1="780" y1="112" x2="780" y2="460"/>
<line x1="828.33" y1="112" x2="828.33" y2="460"/>
<line x1="876.67" y1="112" x2="876.67" y2="460"/>
<line x1="925" y1="112" x2="925" y2="460"/>
<line x1="973.33" y1="112" x2="973.33" y2="460"/>
<line x1="1021.67" y1="112" x2="1021.67" y2="460"/>
<line x1="1070" y1="112" x2="1070" y2="460"/>
<line x1="1118.33" y1="112" x2="1118.33" y2="460"/>
<line x1="1166.67" y1="112" x2="1166.67" y2="460"/>
<line x1="1215" y1="112" x2="1215" y2="460"/>
<line x1="1263.33" y1="112" x2="1263.33" y2="460"/>
<line x1="1311.67" y1="112" x2="1311.67" y2="460"/>
<line x1="1360" y1="112" x2="1360" y2="460"/>
</g>
<!-- month labels every 2nd month, centered in the month cell -->
<g font-size="11" fill="#94A3B8" text-anchor="middle">
<text x="224.2" y="106">M1</text>
<text x="320.8" y="106">M3</text>
<text x="417.5" y="106">M5</text>
<text x="514.2" y="106">M7</text>
<text x="610.8" y="106">M9</text>
<text x="707.5" y="106">M11</text>
<text x="804.2" y="106">M13</text>
<text x="900.8" y="106">M15</text>
<text x="997.5" y="106">M17</text>
<text x="1094.2" y="106">M19</text>
<text x="1190.8" y="106">M21</text>
<text x="1287.5" y="106">M23</text>
</g>

<!-- separator under month axis -->
<line x1="36" y1="120" x2="1360" y2="120" stroke="#E2E8F0" stroke-width="1.5"/>

<!-- ============ LANE: LEGAL + FIRM (amber, y 124..276, 3 bar rows + milestone row) ============ -->
<rect x="36" y="124" width="1324" height="152" rx="8" fill="#FFFBEB"/>
<text x="52" y="146" font-size="13" fill="#64748B" letter-spacing="1">LEGAL + FIRM</text>

<!-- row 1: Ethics counsel + structure mo 1-2 -->
<rect x="200" y="154" width="48.33" height="22" rx="5" fill="#FEF3C7" stroke="#D97706" stroke-width="1.5"/>
<text x="256" y="170" font-size="12.5" fill="#92400E">M-1 Ethics counsel + structure</text>

<!-- row 2: ABS application -> license mo 3-6 -->
<rect x="296.67" y="184" width="145" height="22" rx="5" fill="#FEF3C7" stroke="#D97706" stroke-width="1.5"/>
<text x="449" y="200" font-size="12.5" fill="#92400E">ABS application → license</text>

<!-- row 3: AZ attorney search + hire mo 1-3 -->
<rect x="200" y="214" width="96.67" height="22" rx="5" fill="#FEF3C7" stroke="#D97706" stroke-width="1.5"/>
<text x="304" y="230" font-size="12.5" fill="#92400E">AZ attorney search + hire</text>

<!-- row 4 milestones: First cases signed (mo 7), First fee collections (mo 13.5) -->
<path d="M490 252 l8 -8 l8 8 l-8 8 z" fill="#FEF3C7" stroke="#D97706" stroke-width="1.5"/>
<text x="506" y="256" font-size="12" fill="#92400E">First cases signed</text>
<path d="M804.17 252 l8 -8 l8 8 l-8 8 z" fill="#FEF3C7" stroke="#D97706" stroke-width="1.5"/>
<text x="820" y="256" font-size="12" fill="#92400E">First fee collections</text>

<!-- ============ LANE: SOFTWARE (purple, y 280..344, 1 row + labels) ============ -->
<rect x="36" y="280" width="1324" height="64" rx="8" fill="#FFFFFF"/>
<text x="52" y="316" font-size="13" fill="#64748B" letter-spacing="1">SOFTWARE</text>

<!-- M0-M2 Corpus + extraction + money engine mo 1-2.5 -->
<rect x="200" y="299" width="72.5" height="26" rx="5" fill="#EDE9FE" stroke="#7C3AED" stroke-width="1.5"/>
<!-- M3-M5 Gates + Brain-2 + package mo 2.5-4.5 -->
<rect x="272.5" y="299" width="96.67" height="26" rx="5" fill="#EDE9FE" stroke="#7C3AED" stroke-width="1.5"/>
<!-- M6-M7 Provenance + evals, AZ-tuned mo 4.5-5.5 -->
<rect x="369.17" y="299" width="48.33" height="26" rx="5" fill="#EDE9FE" stroke="#7C3AED" stroke-width="1.5"/>
<!-- labels to the right of the software block -->
<text x="430" y="309" font-size="12" fill="#5B21B6">M0–M2 Corpus + extraction + money engine  ·  M3–M5 Gates + Brain-2 + package</text>
<text x="430" y="324" font-size="12" fill="#5B21B6">M6–M7 Provenance + evals, AZ-tuned  (mo 1–5.5)</text>

<!-- ============ LANE: GROWTH (blue, y 348..412, bars + Series A milestone) ============ -->
<rect x="36" y="348" width="1324" height="64" rx="8" fill="#FFFFFF"/>
<text x="52" y="384" font-size="13" fill="#64748B" letter-spacing="1">GROWTH</text>

<!-- Intake ramp to 12/mo mo 7-12 -->
<rect x="490" y="367" width="241.67" height="26" rx="5" fill="#E0F2FE" stroke="#0284C7" stroke-width="1.5"/>
<text x="611" y="384" font-size="12.5" font-weight="600" fill="#075985" text-anchor="middle">Intake ramp to 12/mo</text>
<!-- Scale to 25/mo + dual-track licensing mo 12-22 -->
<rect x="731.67" y="367" width="483.33" height="26" rx="5" fill="#E0F2FE" stroke="#0284C7" stroke-width="1.5"/>
<text x="973" y="384" font-size="12.5" font-weight="600" fill="#075985" text-anchor="middle">Scale to 25/mo + dual-track licensing</text>
<!-- Series A raise milestone mo 21 (diamond sits above the mo-21 gridline, label to its left) -->
<path d="M1166.67 372 l8 -8 l8 8 l-8 8 z" fill="#E0F2FE" stroke="#0284C7" stroke-width="1.5"/>
<rect x="1075" y="343" width="86" height="16" fill="#FFFFFF"/>
<text x="1158" y="356" font-size="12" font-weight="600" fill="#075985" text-anchor="end">Series A raise</text>
<line x1="1174.67" y1="358" x2="1174.67" y2="366" stroke="#0284C7" stroke-width="1.5"/>

<!-- ============ GREEN ANNOTATION STRIP: fee collections ramp mo 13-24 (own sub-lane) ============ -->
<rect x="36" y="416" width="1324" height="44" rx="8" fill="#F0FDF4"/>
<text x="52" y="442" font-size="13" fill="#64748B" letter-spacing="1">FEES</text>
<rect x="780" y="431" width="531.67" height="14" rx="4" fill="#DCFCE7" stroke="#16A34A" stroke-width="1.5"/>
<text x="773" y="442" font-size="12" fill="#166534" text-anchor="end">Fee collections ramp to ~$140K/mo&#160;</text>

<!-- ============ LEGEND (bottom) ============ -->
<g>
<rect x="700" y="586" width="14" height="14" rx="3" fill="#FEF3C7" stroke="#D97706" stroke-width="1.5"/>
<text x="720" y="598" font-size="11.5" fill="#475569">Legal + firm</text>
<rect x="806" y="586" width="14" height="14" rx="3" fill="#EDE9FE" stroke="#7C3AED" stroke-width="1.5"/>
<text x="826" y="598" font-size="11.5" fill="#475569">Software</text>
<rect x="900" y="586" width="14" height="14" rx="3" fill="#E0F2FE" stroke="#0284C7" stroke-width="1.5"/>
<text x="920" y="598" font-size="11.5" fill="#475569">Growth</text>
<rect x="988" y="586" width="14" height="14" rx="3" fill="#DCFCE7" stroke="#16A34A" stroke-width="1.5"/>
<text x="1008" y="598" font-size="11.5" fill="#475569">Fee collections</text>
<path d="M1108 593 l6 -6 l6 6 l-6 6 z" fill="#F8FAFC" stroke="#64748B" stroke-width="1.5"/>
<text x="1126" y="598" font-size="11.5" fill="#475569">Milestone</text>
</g>

<!-- ============ CAPTION (bottom-left) ============ -->
<text x="36" y="594" font-size="12" fill="#94A3B8">Trough cash need ~$1.3–1.4M around mo 18–20 —</text>
<text x="36" y="612" font-size="12" fill="#94A3B8">the $2.5M ask covers it with buffer.</text>

</svg>
